<svg width="20" height="20" viewBox="0 0 20 20" fill="none" xmlns="http://www.w3.org/2000/svg">
<path d="M12.7907 20H7.2093C2.15814 20 0 17.8419 0 12.7907V7.2093C0 2.15814 2.15814 0 7.2093 0H12.7907C17.8419 0 20 2.15814 20 7.2093V12.7907C20 17.8419 17.8419 20 12.7907 20ZM7.2093 1.39535C2.92093 1.39535 1.39535 2.92093 1.39535 7.2093V12.7907C1.39535 17.0791 2.92093 18.6047 7.2093 18.6047H12.7907C17.0791 18.6047 18.6047 17.0791 18.6047 12.7907V7.2093C18.6047 2.92093 17.0791 1.39535 12.7907 1.39535H7.2093Z" fill="#253017"/>
</svg>
